<mxfile host="www.draw.io" modified="2024-03-29T09:20:16.940Z" agent="Mozilla/5.0 (Windows NT 10.0; Win64; x64) AppleWebKit/537.36 (KHTML, like Gecko) Chrome/123.0.0.0 Safari/537.36" etag="6jnm7IZi6bLxysbGNcr8" version="24.2.1" type="device">
  <diagram name="Page-1" id="FN4ID3uMUfpNOGxWHM7h">
    <mxGraphModel dx="1513" dy="753" grid="1" gridSize="10" guides="1" tooltips="1" connect="1" arrows="1" fold="1" page="1" pageScale="1" pageWidth="827" pageHeight="1169" math="0" shadow="0">
      <root>
        <mxCell id="0" />
        <mxCell id="1" parent="0" />
        <mxCell id="9YZgZRh4ljf_-U1XFcwk-11" style="edgeStyle=orthogonalEdgeStyle;rounded=0;orthogonalLoop=1;jettySize=auto;html=1;exitX=0.5;exitY=0;exitDx=0;exitDy=0;entryX=0.5;entryY=1;entryDx=0;entryDy=0;" edge="1" parent="1" source="9YZgZRh4ljf_-U1XFcwk-1" target="9YZgZRh4ljf_-U1XFcwk-3">
          <mxGeometry relative="1" as="geometry" />
        </mxCell>
        <mxCell id="9YZgZRh4ljf_-U1XFcwk-1" value="&lt;b&gt;&lt;font style=&quot;font-size: 16px;&quot;&gt;Input&lt;/font&gt;&lt;/b&gt;" style="rounded=0;whiteSpace=wrap;html=1;direction=west;rotation=0;fillColor=#f5f5f5;fontColor=#333333;strokeColor=#666666;" vertex="1" parent="1">
          <mxGeometry x="45" y="185" width="70" height="30" as="geometry" />
        </mxCell>
        <mxCell id="9YZgZRh4ljf_-U1XFcwk-24" style="edgeStyle=orthogonalEdgeStyle;rounded=0;orthogonalLoop=1;jettySize=auto;html=1;exitX=0.5;exitY=0;exitDx=0;exitDy=0;entryX=0.5;entryY=1;entryDx=0;entryDy=0;" edge="1" parent="1" source="9YZgZRh4ljf_-U1XFcwk-2" target="9YZgZRh4ljf_-U1XFcwk-23">
          <mxGeometry relative="1" as="geometry">
            <Array as="points">
              <mxPoint x="-120" y="570" />
              <mxPoint x="80" y="570" />
            </Array>
          </mxGeometry>
        </mxCell>
        <mxCell id="9YZgZRh4ljf_-U1XFcwk-2" value="&lt;b&gt;&lt;font style=&quot;font-size: 16px;&quot;&gt;1&amp;nbsp; * 1 Conv, 64&lt;/font&gt;&lt;/b&gt;" style="rounded=0;whiteSpace=wrap;html=1;direction=west;rotation=0;fillColor=#f8cecc;strokeColor=#b85450;" vertex="1" parent="1">
          <mxGeometry x="-170" y="420" width="100" height="50" as="geometry" />
        </mxCell>
        <mxCell id="9YZgZRh4ljf_-U1XFcwk-9" value="" style="edgeStyle=orthogonalEdgeStyle;rounded=0;orthogonalLoop=1;jettySize=auto;html=1;" edge="1" parent="1" source="9YZgZRh4ljf_-U1XFcwk-3" target="9YZgZRh4ljf_-U1XFcwk-4">
          <mxGeometry relative="1" as="geometry" />
        </mxCell>
        <mxCell id="9YZgZRh4ljf_-U1XFcwk-3" value="&lt;b&gt;&lt;font style=&quot;font-size: 16px;&quot;&gt;7&amp;nbsp; * 7 Conv, 64&lt;/font&gt;&lt;/b&gt;" style="rounded=0;whiteSpace=wrap;html=1;direction=west;rotation=0;fillColor=#f8cecc;strokeColor=#b85450;" vertex="1" parent="1">
          <mxGeometry x="30" y="240" width="100" height="50" as="geometry" />
        </mxCell>
        <mxCell id="9YZgZRh4ljf_-U1XFcwk-8" style="edgeStyle=orthogonalEdgeStyle;rounded=0;orthogonalLoop=1;jettySize=auto;html=1;exitX=0.5;exitY=0;exitDx=0;exitDy=0;entryX=0.5;entryY=1;entryDx=0;entryDy=0;" edge="1" parent="1" source="9YZgZRh4ljf_-U1XFcwk-4" target="9YZgZRh4ljf_-U1XFcwk-2">
          <mxGeometry relative="1" as="geometry" />
        </mxCell>
        <mxCell id="9YZgZRh4ljf_-U1XFcwk-12" style="edgeStyle=orthogonalEdgeStyle;rounded=0;orthogonalLoop=1;jettySize=auto;html=1;exitX=0.5;exitY=0;exitDx=0;exitDy=0;entryX=0.5;entryY=1;entryDx=0;entryDy=0;" edge="1" parent="1" source="9YZgZRh4ljf_-U1XFcwk-4" target="9YZgZRh4ljf_-U1XFcwk-5">
          <mxGeometry relative="1" as="geometry" />
        </mxCell>
        <mxCell id="9YZgZRh4ljf_-U1XFcwk-16" style="edgeStyle=orthogonalEdgeStyle;rounded=0;orthogonalLoop=1;jettySize=auto;html=1;exitX=0.5;exitY=0;exitDx=0;exitDy=0;entryX=0.5;entryY=1;entryDx=0;entryDy=0;" edge="1" parent="1" source="9YZgZRh4ljf_-U1XFcwk-4" target="9YZgZRh4ljf_-U1XFcwk-15">
          <mxGeometry relative="1" as="geometry" />
        </mxCell>
        <mxCell id="9YZgZRh4ljf_-U1XFcwk-20" style="edgeStyle=orthogonalEdgeStyle;rounded=0;orthogonalLoop=1;jettySize=auto;html=1;exitX=0.5;exitY=0;exitDx=0;exitDy=0;entryX=0.5;entryY=1;entryDx=0;entryDy=0;" edge="1" parent="1" source="9YZgZRh4ljf_-U1XFcwk-4" target="9YZgZRh4ljf_-U1XFcwk-18">
          <mxGeometry relative="1" as="geometry" />
        </mxCell>
        <mxCell id="9YZgZRh4ljf_-U1XFcwk-4" value="&lt;span style=&quot;font-size: 16px;&quot;&gt;&lt;b&gt;3 * 3 MaxPooling&lt;/b&gt;&lt;/span&gt;" style="rounded=0;whiteSpace=wrap;html=1;direction=west;rotation=0;fillColor=#d5e8d4;strokeColor=#82b366;" vertex="1" parent="1">
          <mxGeometry x="30" y="320" width="100" height="50" as="geometry" />
        </mxCell>
        <mxCell id="9YZgZRh4ljf_-U1XFcwk-7" value="" style="edgeStyle=orthogonalEdgeStyle;rounded=0;orthogonalLoop=1;jettySize=auto;html=1;" edge="1" parent="1" source="9YZgZRh4ljf_-U1XFcwk-5" target="9YZgZRh4ljf_-U1XFcwk-6">
          <mxGeometry relative="1" as="geometry" />
        </mxCell>
        <mxCell id="9YZgZRh4ljf_-U1XFcwk-5" value="&lt;b&gt;&lt;font style=&quot;font-size: 16px;&quot;&gt;1&amp;nbsp; * 1 Conv, 128&lt;/font&gt;&lt;/b&gt;" style="rounded=0;whiteSpace=wrap;html=1;direction=west;rotation=0;fillColor=#f8cecc;strokeColor=#b85450;" vertex="1" parent="1">
          <mxGeometry x="-55" y="420" width="100" height="50" as="geometry" />
        </mxCell>
        <mxCell id="9YZgZRh4ljf_-U1XFcwk-25" style="edgeStyle=orthogonalEdgeStyle;rounded=0;orthogonalLoop=1;jettySize=auto;html=1;exitX=0.5;exitY=0;exitDx=0;exitDy=0;entryX=0.5;entryY=1;entryDx=0;entryDy=0;" edge="1" parent="1" source="9YZgZRh4ljf_-U1XFcwk-6" target="9YZgZRh4ljf_-U1XFcwk-23">
          <mxGeometry relative="1" as="geometry">
            <mxPoint x="160" y="620" as="targetPoint" />
            <Array as="points">
              <mxPoint x="-5" y="570" />
              <mxPoint x="80" y="570" />
            </Array>
          </mxGeometry>
        </mxCell>
        <mxCell id="9YZgZRh4ljf_-U1XFcwk-6" value="&lt;b&gt;&lt;font style=&quot;font-size: 16px;&quot;&gt;3&amp;nbsp; * 3 Conv, 128&lt;/font&gt;&lt;/b&gt;" style="rounded=0;whiteSpace=wrap;html=1;direction=west;rotation=0;fillColor=#f8cecc;strokeColor=#b85450;" vertex="1" parent="1">
          <mxGeometry x="-55" y="500" width="100" height="50" as="geometry" />
        </mxCell>
        <mxCell id="9YZgZRh4ljf_-U1XFcwk-26" style="edgeStyle=orthogonalEdgeStyle;rounded=0;orthogonalLoop=1;jettySize=auto;html=1;exitX=0.5;exitY=0;exitDx=0;exitDy=0;entryX=0.5;entryY=1;entryDx=0;entryDy=0;" edge="1" parent="1" source="9YZgZRh4ljf_-U1XFcwk-14" target="9YZgZRh4ljf_-U1XFcwk-23">
          <mxGeometry relative="1" as="geometry">
            <Array as="points">
              <mxPoint x="130" y="570" />
              <mxPoint x="80" y="570" />
            </Array>
          </mxGeometry>
        </mxCell>
        <mxCell id="9YZgZRh4ljf_-U1XFcwk-14" value="&lt;b&gt;&lt;font style=&quot;font-size: 16px;&quot;&gt;5&amp;nbsp; * 5 Conv, 96&lt;/font&gt;&lt;/b&gt;" style="rounded=0;whiteSpace=wrap;html=1;direction=west;rotation=0;fillColor=#f8cecc;strokeColor=#b85450;" vertex="1" parent="1">
          <mxGeometry x="80" y="500" width="100" height="50" as="geometry" />
        </mxCell>
        <mxCell id="9YZgZRh4ljf_-U1XFcwk-17" value="" style="edgeStyle=orthogonalEdgeStyle;rounded=0;orthogonalLoop=1;jettySize=auto;html=1;" edge="1" parent="1" source="9YZgZRh4ljf_-U1XFcwk-15" target="9YZgZRh4ljf_-U1XFcwk-14">
          <mxGeometry relative="1" as="geometry" />
        </mxCell>
        <mxCell id="9YZgZRh4ljf_-U1XFcwk-15" value="&lt;b&gt;&lt;font style=&quot;font-size: 16px;&quot;&gt;1&amp;nbsp; * 1 Conv, 32&lt;/font&gt;&lt;/b&gt;" style="rounded=0;whiteSpace=wrap;html=1;direction=west;rotation=0;fillColor=#f8cecc;strokeColor=#b85450;" vertex="1" parent="1">
          <mxGeometry x="80" y="420" width="100" height="50" as="geometry" />
        </mxCell>
        <mxCell id="9YZgZRh4ljf_-U1XFcwk-22" value="" style="edgeStyle=orthogonalEdgeStyle;rounded=0;orthogonalLoop=1;jettySize=auto;html=1;" edge="1" parent="1" source="9YZgZRh4ljf_-U1XFcwk-18" target="9YZgZRh4ljf_-U1XFcwk-21">
          <mxGeometry relative="1" as="geometry" />
        </mxCell>
        <mxCell id="9YZgZRh4ljf_-U1XFcwk-18" value="&lt;span style=&quot;font-size: 16px;&quot;&gt;&lt;b&gt;3 * 3 MaxPooling&lt;/b&gt;&lt;/span&gt;" style="rounded=0;whiteSpace=wrap;html=1;direction=west;rotation=0;fillColor=#d5e8d4;strokeColor=#82b366;" vertex="1" parent="1">
          <mxGeometry x="230" y="420" width="100" height="50" as="geometry" />
        </mxCell>
        <mxCell id="9YZgZRh4ljf_-U1XFcwk-27" style="edgeStyle=orthogonalEdgeStyle;rounded=0;orthogonalLoop=1;jettySize=auto;html=1;exitX=0.5;exitY=0;exitDx=0;exitDy=0;entryX=0.5;entryY=1;entryDx=0;entryDy=0;" edge="1" parent="1" source="9YZgZRh4ljf_-U1XFcwk-21" target="9YZgZRh4ljf_-U1XFcwk-23">
          <mxGeometry relative="1" as="geometry">
            <Array as="points">
              <mxPoint x="280" y="570" />
              <mxPoint x="80" y="570" />
            </Array>
          </mxGeometry>
        </mxCell>
        <mxCell id="9YZgZRh4ljf_-U1XFcwk-21" value="&lt;span style=&quot;font-size: 16px;&quot;&gt;&lt;b&gt;1 * 1 Conv, 32&lt;/b&gt;&lt;/span&gt;" style="rounded=0;whiteSpace=wrap;html=1;direction=west;rotation=0;fillColor=#f8cecc;strokeColor=#b85450;" vertex="1" parent="1">
          <mxGeometry x="230" y="500" width="100" height="50" as="geometry" />
        </mxCell>
        <mxCell id="9YZgZRh4ljf_-U1XFcwk-29" value="" style="edgeStyle=orthogonalEdgeStyle;rounded=0;orthogonalLoop=1;jettySize=auto;html=1;" edge="1" parent="1" source="9YZgZRh4ljf_-U1XFcwk-23" target="9YZgZRh4ljf_-U1XFcwk-28">
          <mxGeometry relative="1" as="geometry" />
        </mxCell>
        <mxCell id="9YZgZRh4ljf_-U1XFcwk-23" value="&lt;b&gt;&lt;font style=&quot;font-size: 16px;&quot;&gt;Concatenate&lt;/font&gt;&lt;/b&gt;" style="rounded=0;whiteSpace=wrap;html=1;direction=west;rotation=0;fillColor=#f5f5f5;fontColor=#333333;strokeColor=#666666;" vertex="1" parent="1">
          <mxGeometry x="26.25" y="585" width="107.5" height="40" as="geometry" />
        </mxCell>
        <mxCell id="9YZgZRh4ljf_-U1XFcwk-31" value="" style="edgeStyle=orthogonalEdgeStyle;rounded=0;orthogonalLoop=1;jettySize=auto;html=1;" edge="1" parent="1" source="9YZgZRh4ljf_-U1XFcwk-28" target="9YZgZRh4ljf_-U1XFcwk-30">
          <mxGeometry relative="1" as="geometry" />
        </mxCell>
        <mxCell id="9YZgZRh4ljf_-U1XFcwk-28" value="&lt;span style=&quot;font-size: 16px;&quot;&gt;&lt;b&gt;3 * 3 MaxPooling,&lt;/b&gt;&lt;/span&gt;&lt;div&gt;&lt;span style=&quot;font-size: 16px;&quot;&gt;&lt;b&gt;Stride 2&lt;/b&gt;&lt;/span&gt;&lt;/div&gt;" style="rounded=0;whiteSpace=wrap;html=1;direction=west;rotation=0;fillColor=#d5e8d4;strokeColor=#82b366;" vertex="1" parent="1">
          <mxGeometry x="25" y="650" width="110" height="60" as="geometry" />
        </mxCell>
        <mxCell id="9YZgZRh4ljf_-U1XFcwk-33" value="" style="edgeStyle=orthogonalEdgeStyle;rounded=0;orthogonalLoop=1;jettySize=auto;html=1;" edge="1" parent="1" source="9YZgZRh4ljf_-U1XFcwk-30" target="9YZgZRh4ljf_-U1XFcwk-32">
          <mxGeometry relative="1" as="geometry" />
        </mxCell>
        <mxCell id="9YZgZRh4ljf_-U1XFcwk-30" value="&lt;span style=&quot;font-size: 16px;&quot;&gt;&lt;b&gt;Global Average Pooling&lt;/b&gt;&lt;/span&gt;" style="rounded=0;whiteSpace=wrap;html=1;direction=west;rotation=0;fillColor=#e1d5e7;strokeColor=#9673a6;" vertex="1" parent="1">
          <mxGeometry x="25" y="740" width="110" height="60" as="geometry" />
        </mxCell>
        <mxCell id="9YZgZRh4ljf_-U1XFcwk-32" value="&lt;span style=&quot;font-size: 16px;&quot;&gt;&lt;b&gt;Output(Softmax)&lt;/b&gt;&lt;/span&gt;" style="rounded=0;whiteSpace=wrap;html=1;direction=west;rotation=0;fillColor=#f5f5f5;strokeColor=#666666;fontColor=#333333;" vertex="1" parent="1">
          <mxGeometry x="16.88" y="820" width="126.25" height="40" as="geometry" />
        </mxCell>
      </root>
    </mxGraphModel>
  </diagram>
</mxfile>
